<svg width="829" height="693" viewBox="0 0 829 693" fill="none" xmlns="http://www.w3.org/2000/svg">
<rect x="0.5" y="0.5" width="828" height="692" rx="4.5" stroke="black" stroke-dasharray="10 5"/>
<rect x="20" y="20" width="160" height="48" rx="8" fill="white"/>
<path d="M76.6562 49.5V38.1875H80.7969C83.2109 38.1875 84.375 39.4766 84.375 41.1562C84.375 42.5703 83.5078 43.2812 82.4688 43.5469V43.6562C83.5938 43.7188 84.8125 44.7031 84.8125 46.4531C84.8125 48.1875 83.625 49.5 80.9844 49.5H76.6562ZM78.375 48.0312H80.8281C82.4531 48.0234 83.1094 47.3125 83.1094 46.375C83.1094 45.2891 82.25 44.4219 80.8906 44.4219H78.375V48.0312ZM78.375 43.0781H80.6562C81.7969 43.0703 82.6875 42.3828 82.6875 41.2969C82.6875 40.3594 82.0391 39.6562 80.6875 39.6562H78.375V43.0781ZM91.9062 45.9688V41.0156H93.5625V49.5H91.9375V48.0312H91.8438C91.4531 48.9375 90.5859 49.6094 89.3125 49.6094C87.6719 49.6094 86.5156 48.5078 86.5156 46.4062V41.0156H88.1875V46.2031C88.1875 47.3594 88.8906 48.0938 89.9062 48.0938C90.8359 48.0938 91.9062 47.4141 91.9062 45.9688ZM99.5625 41.0156V42.3438H97.8281V47C97.8359 47.9609 98.3047 48.1328 98.8438 48.1406C99.0859 48.1406 99.4531 48.1172 99.6875 48.0938V49.5469C99.4609 49.5781 99.1016 49.6094 98.6406 49.6094C97.3359 49.6094 96.1562 48.8906 96.1719 47.3438V42.3438H94.9219V41.0156H96.1719V38.9844H97.8281V41.0156H99.5625ZM105.156 41.0156V42.3438H103.422V47C103.43 47.9609 103.898 48.1328 104.438 48.1406C104.68 48.1406 105.047 48.1172 105.281 48.0938V49.5469C105.055 49.5781 104.695 49.6094 104.234 49.6094C102.93 49.6094 101.75 48.8906 101.766 47.3438V42.3438H100.516V41.0156H101.766V38.9844H103.422V41.0156H105.156ZM110.281 49.6719C107.875 49.6719 106.305 47.9219 106.312 45.2969C106.305 42.6562 107.875 40.9062 110.281 40.9062C112.672 40.9062 114.234 42.6562 114.234 45.2969C114.234 47.9219 112.672 49.6719 110.281 49.6719ZM107.984 45.2969C107.984 46.9141 108.727 48.2812 110.281 48.2812C111.812 48.2812 112.547 46.9141 112.547 45.2969C112.547 43.6719 111.812 42.2891 110.281 42.2812C108.727 42.2891 107.984 43.6719 107.984 45.2969ZM117.547 44.4688V49.5H115.875V41.0156H117.484V42.4062H117.578C117.977 41.4922 118.812 40.9062 120.078 40.9062C121.82 40.9062 122.977 42.0078 122.969 44.1094V49.5H121.312V44.3125C121.305 43.0781 120.641 42.3438 119.516 42.3438C118.367 42.3438 117.547 43.1172 117.547 44.4688Z" fill="white"/>
</svg>
