<svg width="12" height="12" viewBox="0 0 12 12" fill="none" xmlns="http://www.w3.org/2000/svg">
<g id="edit-01" clip-path="url(#clip0_31_5810)">
<path id="Icon" d="M1.43802 9.05785C1.46099 8.8511 1.47248 8.74773 1.50376 8.65111C1.53151 8.56538 1.57072 8.48381 1.62032 8.40859C1.67623 8.3238 1.74977 8.25026 1.89686 8.10317L8.50001 1.50003C9.0523 0.947744 9.94773 0.947745 10.5 1.50003C11.0523 2.05231 11.0523 2.94775 10.5 3.50003L3.89686 10.1032C3.74977 10.2503 3.67623 10.3238 3.59144 10.3797C3.51622 10.4293 3.43464 10.4685 3.34892 10.4963C3.2523 10.5276 3.14893 10.539 2.94218 10.562L1.25 10.75L1.43802 9.05785Z" fill="white" stroke="white" stroke-linecap="round" stroke-linejoin="round"/>
</g>
<defs>
<clipPath id="clip0_31_5810">
<rect width="12" height="12" fill="white"/>
</clipPath>
</defs>
</svg>
