<svg width="138" height="30" viewBox="0 0 138 30" fill="none" xmlns="http://www.w3.org/2000/svg">
<g id="&#234;&#183;&#184;&#235;&#163;&#185; 179621">
<path id="&#237;&#140;&#168;&#236;&#138;&#164; 92130" d="M114.352 25.6706V14.7927H115.887V17.096H115.943C116.137 16.448 116.522 15.875 117.047 15.4534C117.535 15.0587 118.142 14.8454 118.768 14.8494C118.983 14.8397 119.198 14.8651 119.404 14.9246V16.7563C119.182 16.7128 118.956 16.6938 118.73 16.6996C118.438 16.6926 118.149 16.7461 117.878 16.8565C117.608 16.967 117.363 17.1321 117.159 17.3418C116.713 17.8107 116.414 18.401 116.298 19.0398C116.241 19.3895 116.216 19.7439 116.223 20.0983V25.6706H114.352Z" fill="#333333"/>
<path id="&#237;&#140;&#168;&#236;&#138;&#164; 92131" d="M37.1349 12.6661V19.6653C37.1234 20.2201 37.1489 20.7751 37.2112 21.3264C37.2628 21.8705 37.4834 22.3841 37.8414 22.7941C38.2884 23.1396 38.8233 23.3502 39.3841 23.4015C39.9448 23.4527 40.5085 23.3426 41.0097 23.0838C41.3873 22.9082 41.6914 22.604 41.8687 22.2245C42.0461 21.7391 42.1365 21.2257 42.1357 20.7084C42.1482 20.374 42.1546 19.9943 42.1548 19.5691V12.6679H44.9037V19.9748C44.9037 20.0776 44.8967 20.2064 44.8841 20.3607C44.8815 21.1916 44.733 22.0155 44.4455 22.7941C44.1776 23.5005 43.7292 24.1228 43.1459 24.5976C42.5626 25.0725 41.8651 25.3831 41.1243 25.4979C40.6587 25.5878 40.1858 25.6331 39.7118 25.6333C37.8414 25.6333 36.4163 25.0796 35.4362 23.9722C34.6853 23.1223 34.3036 21.8992 34.2911 20.3027L34.272 19.8974V12.6661H37.1349Z" fill="#333333"/>
<path id="&#237;&#140;&#168;&#236;&#138;&#164; 92132" d="M48.1345 10.3545C48.3113 10.351 48.487 10.3829 48.6515 10.4484C48.816 10.5139 48.966 10.6117 49.0928 10.736C49.2238 10.8648 49.3267 11.02 49.3946 11.1914C49.4625 11.3628 49.4939 11.5467 49.487 11.7312C49.4935 11.9115 49.4617 12.091 49.3937 12.2578C49.3257 12.4246 49.2231 12.5748 49.0928 12.6983C48.8342 12.9445 48.49 13.0781 48.1345 13.0701C47.9595 13.0748 47.7852 13.0443 47.6219 12.9805C47.4586 12.9166 47.3095 12.8207 47.1833 12.6983C47.0552 12.5735 46.9547 12.4229 46.8883 12.2562C46.8219 12.0896 46.7911 11.9107 46.7978 11.7312C46.7918 11.5511 46.822 11.3717 46.8867 11.2037C46.9514 11.0358 47.0492 10.8828 47.1741 10.7541C47.2991 10.6254 47.4487 10.5236 47.6137 10.4549C47.7788 10.3863 47.956 10.3521 48.1345 10.3545ZM49.4887 25.6702H46.7978V14.7893H49.4887V25.6702Z" fill="#333333"/>
<path id="&#237;&#140;&#168;&#236;&#138;&#164; 92133" d="M56.8985 14.7889H58.5262V16.6043C58.8804 16.0215 59.3837 15.5458 59.983 15.227C60.5823 14.9083 61.2557 14.7583 61.9323 14.7928C62.4008 14.7685 62.8691 14.8434 63.3072 15.0125C63.7453 15.1816 64.1436 15.4412 64.4764 15.7748C65.1733 16.4922 65.5218 17.5364 65.5218 18.9076V25.6707H63.6489V19.0399C63.6489 17.1899 62.919 16.2649 61.4593 16.2649C60.7568 16.2339 60.0707 16.4853 59.5515 16.9638C59.2815 17.2414 59.0723 17.573 58.9372 17.9373C58.8022 18.3015 58.7443 18.6904 58.7675 19.0786V25.6707H56.8945L56.8985 14.7889Z" fill="#333333"/>
<path id="&#237;&#140;&#168;&#236;&#138;&#164; 92134" d="M76.6375 20.7031V20.0024C76.6375 16.5287 75.1845 14.792 72.2784 14.7923C71.6414 14.7683 71.0066 14.8785 70.4141 15.1157C69.8217 15.353 69.2847 15.7121 68.8374 16.1703C67.8765 17.14 67.3964 18.4933 67.397 20.2301C67.397 22.1167 67.9147 23.5263 68.9502 24.4587C69.9547 25.3022 71.2367 25.7339 72.5419 25.668C73.1162 25.6608 73.6877 25.5846 74.2441 25.4407C74.8191 25.2999 75.3777 25.0974 75.9101 24.8368C76.058 24.7516 76.2013 24.6585 76.3391 24.5576L75.9423 23.1994C75.9423 23.1994 75.3922 23.5154 75.1805 23.6275C74.3884 23.9928 73.5251 24.174 72.6543 24.1576C72.2295 24.1769 71.8052 24.1098 71.4066 23.9604C71.008 23.811 70.6433 23.5822 70.334 23.2877C69.6981 22.5796 69.3436 21.6596 69.3383 20.704L71.0631 20.7018L76.6375 20.7031ZM72.2784 16.2072C73.9245 16.2072 74.7604 17.2081 74.7859 19.2099H69.3705C69.4381 18.5535 69.6519 17.921 69.996 17.3598C70.246 16.9857 70.5874 16.683 70.9873 16.4811C71.3871 16.2792 71.8318 16.1849 72.2784 16.2072Z" fill="#333333"/>
<path id="&#237;&#140;&#168;&#236;&#138;&#164; 92135" d="M79.5699 12.6661H81.4398V15.0767H84.4887V16.5871H81.4398V22.0816C81.4191 22.5449 81.4631 23.0087 81.5704 23.4596C81.6425 23.6817 81.7878 23.8722 81.982 23.9994C82.1762 24.1266 82.4077 24.1829 82.638 24.159C82.9169 24.1563 83.1939 24.1118 83.4599 24.0271C83.6834 23.9519 84.1786 23.7045 84.1786 23.7045L84.5706 25.039C84.5706 25.039 84.0749 25.2276 83.9094 25.2917C83.3618 25.5167 82.7797 25.6446 82.189 25.6698C81.5318 25.7181 80.8815 25.5083 80.3739 25.0843C79.8379 24.5805 79.5699 23.674 79.5699 22.3647V16.5853H77.9971V15.0767H79.5699V12.6661Z" fill="#333333"/>
<path id="&#237;&#140;&#168;&#236;&#138;&#164; 92136" d="M86.3574 14.7887H88.4525L90.0615 21.2309C90.225 21.8551 90.4498 22.7442 90.7362 23.8982H90.7723C90.9465 23.1841 91.159 22.295 91.4095 21.2309L93.0551 14.7891H95.3201L96.9469 21.2309C96.9713 21.3356 97.1834 22.2247 97.5833 23.8982H97.6211C97.6577 23.7286 97.8883 22.8395 98.3128 21.2309L99.978 14.7891H101.83L99.0045 24.5013C98.9443 24.8385 98.7653 25.1423 98.5006 25.3569C98.2359 25.5714 97.9033 25.6822 97.5641 25.6688C96.7905 25.6688 96.2851 25.2342 96.0479 24.365L94.8688 20.1219C94.5947 19.149 94.339 18.0006 94.1018 16.6766H94.0652C93.8742 17.8388 93.6181 18.989 93.2982 20.1219L92.1374 24.5013C92.0783 24.8425 91.8972 25.1498 91.6284 25.3651C91.3595 25.5803 91.0217 25.6884 90.6791 25.6688C90.3267 25.6863 89.98 25.5733 89.7043 25.3511C89.4286 25.1288 89.2429 24.8125 89.1821 24.4617L86.3574 14.7887Z" fill="#333333"/>
<path id="&#237;&#140;&#168;&#236;&#138;&#164; 92137" d="M107.505 14.7924C108.154 14.7681 108.8 14.8778 109.405 15.1149C110.01 15.3519 110.56 15.7113 111.022 16.1708C111.996 17.1399 112.482 18.4931 112.481 20.2302C112.481 21.9542 111.995 23.3075 111.022 24.29C110.062 25.1765 108.807 25.6681 107.505 25.6681C106.203 25.6681 104.949 25.1765 103.988 24.29C103.001 23.3081 102.508 21.9548 102.51 20.2302C102.512 18.5057 103.004 17.1525 103.988 16.1708C104.45 15.7113 105.001 15.3519 105.606 15.1149C106.21 14.8778 106.857 14.7681 107.505 14.7924ZM107.505 16.2276C107.093 16.2082 106.683 16.283 106.304 16.4463C105.924 16.6097 105.587 16.8573 105.316 17.1709C104.729 17.8639 104.437 18.8771 104.437 20.2104C104.437 21.5318 104.73 22.5454 105.316 23.2513C105.587 23.5646 105.925 23.8122 106.304 23.9755C106.683 24.1388 107.094 24.2137 107.505 24.1947C107.917 24.2111 108.327 24.135 108.705 23.9718C109.084 23.8087 109.422 23.5626 109.695 23.2513C110.281 22.546 110.574 21.5324 110.573 20.2104C110.573 18.8768 110.281 17.8636 109.695 17.1709C109.424 16.8574 109.086 16.6098 108.707 16.4465C108.328 16.2832 107.917 16.2083 107.505 16.2276Z" fill="#333333"/>
<path id="&#237;&#140;&#168;&#236;&#138;&#164; 92138" d="M121.287 10.355H123.16V25.6707H121.287V10.355ZM128.052 14.7946H130.353L125.553 20.2069L130.353 25.6707H127.85L123.849 20.9467C123.686 20.78 123.593 20.5569 123.588 20.323C123.595 20.0739 123.695 19.8368 123.87 19.6601L128.052 14.7946Z" fill="#333333"/>
<path id="&#237;&#140;&#168;&#236;&#138;&#164; 92139" d="M137.795 15.3778L137.29 16.8112C136.546 16.4621 135.734 16.2882 134.913 16.3027C134.46 16.2867 134.01 16.3839 133.604 16.5857C133.403 16.6679 133.231 16.8091 133.111 16.9911C132.991 17.1731 132.928 17.3874 132.931 17.606C132.931 18.122 133.279 18.5374 133.976 18.8521C135.098 19.3544 135.828 19.6877 136.166 19.8521C137.387 20.4561 137.998 21.356 137.999 22.5519C138.023 23.0109 137.931 23.4684 137.731 23.8814C137.531 24.2943 137.23 24.6492 136.857 24.9124C136.078 25.4366 135.156 25.7011 134.22 25.6685C133.564 25.6824 132.909 25.6058 132.274 25.4408C131.969 25.3586 131.676 25.2359 131.403 25.0759C131.248 24.981 130.904 24.6891 130.904 24.6891L131.296 23.2996C131.296 23.2996 131.821 23.5695 132.012 23.6403C132.142 23.6895 132.431 23.7858 132.852 23.912C133.319 24.0572 133.804 24.1333 134.292 24.1379C135.602 24.1379 136.256 23.6283 136.256 22.6091C136.256 22.0297 135.87 21.5764 135.096 21.2491C133.912 20.7468 133.132 20.3883 132.757 20.1735C132.289 19.9551 131.892 19.6062 131.614 19.1679C131.336 18.7296 131.187 18.2202 131.186 17.6996C131.169 17.2563 131.269 16.8163 131.475 16.4248C131.682 16.0332 131.988 15.7042 132.362 15.4714C133.103 15.0093 133.962 14.7798 134.832 14.8121C135.848 14.765 136.861 14.9592 137.789 15.3791" fill="#333333"/>
<path id="&#237;&#140;&#168;&#236;&#138;&#164; 92140" d="M23.1283 6.47278e-06C22.1438 6.47278e-06 21.1995 0.394716 20.5033 1.0973C19.8071 1.79989 19.416 2.7528 19.416 3.74641C19.4162 3.93163 19.4298 4.11658 19.4565 4.29982C19.5881 5.18765 20.0311 5.99831 20.705 6.5843C21.3789 7.1703 22.2388 7.49269 23.1283 7.49282C23.2593 7.49291 23.3901 7.48616 23.5204 7.4726C24.467 7.37295 25.3396 6.91018 25.9578 6.17987C26.576 5.44957 26.8927 4.50752 26.8424 3.54834C26.7921 2.58916 26.3786 1.68613 25.6874 1.02578C24.9962 0.365432 24.0801 -0.00177791 23.1283 6.47278e-06Z" fill="#27D4FF"/>
<path id="&#237;&#140;&#168;&#236;&#138;&#164; 92141" d="M26.8397 15.1985V14.1537C26.8397 14.1366 26.8397 14.1199 26.8397 14.1023C26.8397 14.0847 26.8397 14.0684 26.8397 14.0508C26.8301 13.2404 26.5588 12.4552 26.067 11.8143C26.0174 11.7493 25.9651 11.686 25.9115 11.6249C25.858 11.5638 25.7909 11.5176 25.7343 11.4601C25.2387 10.9552 24.6105 10.6038 23.9235 10.4474C23.2366 10.291 22.5197 10.3361 21.8574 10.5774C21.1951 10.8187 20.6149 11.2461 20.1853 11.8092C19.7558 12.3722 19.4947 13.0476 19.4329 13.7555C19.4225 13.8697 19.4164 13.9849 19.4164 14.1023C19.4164 14.2196 19.4229 14.3467 19.4342 14.4662L19.4377 16.4175C19.443 17.4053 19.2076 18.3794 18.7523 19.2539C18.2969 20.1284 17.6355 20.8765 16.8263 21.4324C16.0171 21.9883 15.085 22.335 14.1118 22.442C13.1387 22.5489 12.1544 22.4128 11.2456 22.0456C12.4164 23.3226 13.9258 24.2334 15.5945 24.67C17.2633 25.1065 19.0211 25.0505 20.6591 24.5084C22.2972 23.9663 23.7466 22.961 24.8351 21.612C25.9236 20.263 26.6055 18.627 26.7997 16.8983C26.8136 16.7665 26.8219 16.6346 26.8302 16.4988C26.838 16.3783 26.8545 16.2605 26.858 16.1388C26.8606 16.0469 26.8619 15.9555 26.8619 15.8632C26.8619 15.6407 26.8541 15.4205 26.8397 15.2016" fill="#27D4FF"/>
<path id="&#237;&#140;&#168;&#236;&#138;&#164; 92142" d="M3.71233 0C2.76215 0.00302655 1.84929 0.373628 1.16173 1.03549C0.474174 1.69734 0.0642708 2.60007 0.0164309 3.55776C-0.031409 4.51546 0.286457 5.45521 0.904572 6.18349C1.52269 6.91177 2.39399 7.37314 3.33905 7.47259C3.46188 7.4849 3.58645 7.49149 3.71233 7.49149C4.68467 7.47308 5.61102 7.07035 6.29221 6.36989C6.9734 5.66943 7.35502 4.72718 7.35502 3.74575C7.35502 2.76431 6.9734 1.82206 6.29221 1.1216C5.61102 0.421145 4.68467 0.0184123 3.71233 0Z" fill="#0069E6"/>
<path id="&#237;&#140;&#168;&#236;&#138;&#164; 92143" d="M7.43651 16.1065C7.43651 16.0243 7.42432 15.9447 7.42432 15.8621V15.9324C7.42432 15.9913 7.43477 16.0476 7.43651 16.1082" fill="#0069E6"/>
<path id="&#237;&#140;&#168;&#236;&#138;&#164; 92144" d="M7.50928 17.1427C7.5145 17.1827 7.52191 17.2223 7.52757 17.2623C7.52191 17.2218 7.51407 17.1827 7.50928 17.1427Z" fill="#0069E6"/>
<path id="&#237;&#140;&#168;&#236;&#138;&#164; 92145" d="M7.52745 17.2629C7.52179 17.2229 7.51482 17.1838 7.50915 17.1433C7.46821 16.8028 7.44411 16.4573 7.43685 16.1068C7.43685 16.0479 7.42465 15.9917 7.42422 15.931V14.1011C7.41363 13.1146 7.01787 12.1721 6.32287 11.4783C5.62786 10.7844 4.68971 10.3953 3.71211 10.3953C2.7345 10.3953 1.79636 10.7844 1.10135 11.4783C0.406348 12.1721 0.0105891 13.1146 0 14.1011L0 16.4163C0.000111173 19.9109 1.33774 23.2705 3.73366 25.7937C6.12958 28.3168 9.39861 29.8086 12.8583 29.9575C13.231 30.0143 13.6099 30.0143 13.9825 29.9575C16.1364 29.8691 18.2374 29.2584 20.1079 28.1771C21.9783 27.0958 23.5632 25.5758 24.7284 23.7456C23.3154 25.0067 21.5891 25.8563 19.7344 26.2033C17.8797 26.5504 15.9664 26.382 14.1993 25.716C12.4322 25.05 10.8778 23.9115 9.70255 22.4225C8.5273 20.9335 7.77544 19.15 7.52745 17.2629Z" fill="#0069E6"/>
<path id="&#237;&#140;&#168;&#236;&#138;&#164; 92146" d="M7.43652 16.1063C7.44436 16.458 7.46861 16.8036 7.50926 17.1433C7.46713 16.7991 7.44285 16.453 7.43652 16.1063Z" fill="#0069E6"/>
</g>
</svg>
