<svg width="196" height="42" viewBox="0 0 196 42" fill="none" xmlns="http://www.w3.org/2000/svg">
<g id="&#234;&#183;&#184;&#235;&#163;&#185; 179621">
<path id="&#237;&#140;&#168;&#236;&#138;&#164; 92130" d="M162.054 35.9389V20.7098H164.229V23.9345H164.309C164.583 23.0272 165.129 22.225 165.873 21.6348C166.564 21.0821 167.425 20.7836 168.311 20.7892C168.615 20.7757 168.92 20.8112 169.213 20.8945V23.4588C168.898 23.3979 168.578 23.3713 168.257 23.3794C167.844 23.3697 167.434 23.4445 167.051 23.5991C166.668 23.7538 166.321 23.985 166.031 24.2785C165.4 24.935 164.976 25.7615 164.811 26.6557C164.73 27.1453 164.694 27.6414 164.705 28.1376V35.9389H162.054Z" fill="#333333"/>
<path id="&#237;&#140;&#168;&#236;&#138;&#164; 92131" d="M52.6256 17.7325V27.5314C52.6093 28.3081 52.6454 29.0851 52.7336 29.857C52.8068 30.6186 53.1194 31.3377 53.6268 31.9117C54.2603 32.3954 55.0183 32.6902 55.8129 32.762C56.6076 32.8338 57.4064 32.6796 58.1168 32.3173C58.6518 32.0715 59.0828 31.6455 59.334 31.1142C59.5854 30.4347 59.7135 29.716 59.7124 28.9917C59.7301 28.5236 59.7391 27.9919 59.7395 27.3966V17.735H63.6351V27.9646C63.6351 28.1086 63.6252 28.2889 63.6073 28.5049C63.6036 29.6682 63.3931 30.8217 62.9857 31.9117C62.6061 32.9007 61.9707 33.7718 61.144 34.4367C60.3173 35.1015 59.3289 35.5363 58.2791 35.697C57.6193 35.8228 56.9491 35.8863 56.2773 35.8865C53.6268 35.8865 51.6071 35.1114 50.2183 33.561C49.1541 32.3712 48.6132 30.6588 48.5955 28.4237L48.5684 27.8563V17.7325H52.6256Z" fill="#333333"/>
<path id="&#237;&#140;&#168;&#236;&#138;&#164; 92132" d="M68.2135 14.4963C68.4641 14.4914 68.7131 14.5361 68.9462 14.6278C69.1793 14.7195 69.3918 14.8564 69.5715 15.0305C69.7572 15.2108 69.9029 15.428 69.9992 15.668C70.0954 15.908 70.14 16.1655 70.1301 16.4237C70.1393 16.6761 70.0943 16.9275 69.9979 17.161C69.9015 17.3945 69.7561 17.6048 69.5715 17.7776C69.205 18.1223 68.7172 18.3093 68.2135 18.2982C67.9654 18.3047 67.7185 18.262 67.4871 18.1727C67.2557 18.0833 67.0444 17.949 66.8654 17.7776C66.684 17.6029 66.5416 17.392 66.4475 17.1587C66.3533 16.9255 66.3096 16.675 66.3192 16.4237C66.3106 16.1716 66.3535 15.9204 66.4452 15.6852C66.5368 15.4501 66.6754 15.236 66.8525 15.0558C67.0296 14.8756 67.2416 14.7331 67.4755 14.6369C67.7094 14.5408 67.9605 14.4929 68.2135 14.4963ZM70.1326 35.9384H66.3192V20.705H70.1326V35.9384Z" fill="#333333"/>
<path id="&#237;&#140;&#168;&#236;&#138;&#164; 92133" d="M80.633 20.7044H82.9397V23.246C83.4417 22.4301 84.1549 21.764 85.0042 21.3178C85.8536 20.8716 86.8078 20.6616 87.7667 20.7099C88.4306 20.6759 89.0942 20.7807 89.7151 21.0174C90.336 21.2542 90.9004 21.6177 91.3721 22.0847C92.3597 23.089 92.8535 24.551 92.8535 26.4706V35.939H90.1993V26.6558C90.1993 24.0659 89.165 22.7709 87.0963 22.7709C86.1008 22.7275 85.1285 23.0794 84.3927 23.7493C84.0102 24.1379 83.7136 24.6022 83.5222 25.1122C83.3308 25.6221 83.2489 26.1665 83.2817 26.71V35.939H80.6274L80.633 20.7044Z" fill="#333333"/>
<path id="&#237;&#140;&#168;&#236;&#138;&#164; 92134" d="M108.607 28.9844V28.0034C108.607 23.1402 106.548 20.7088 102.429 20.7092C101.527 20.6757 100.627 20.8299 99.7875 21.1621C98.9479 21.4942 98.187 21.997 97.553 22.6385C96.1913 23.996 95.5109 25.8906 95.5117 28.3222C95.5117 30.9634 96.2454 32.9368 97.7129 34.2422C99.1364 35.4232 100.953 36.0274 102.803 35.9352C103.617 35.9252 104.427 35.8184 105.215 35.617C106.03 35.4198 106.822 35.1364 107.576 34.7715C107.786 34.6523 107.989 34.5219 108.184 34.3807L107.622 32.4792C107.622 32.4792 106.842 32.9216 106.542 33.0785C105.42 33.59 104.196 33.8436 102.962 33.8207C102.36 33.8477 101.759 33.7538 101.194 33.5446C100.629 33.3354 100.112 33.0151 99.6739 32.6028C98.7728 31.6115 98.2703 30.3234 98.2628 28.9856L100.707 28.9825L108.607 28.9844ZM102.429 22.6901C104.762 22.6901 105.947 24.0914 105.983 26.8939H98.3085C98.4042 25.9749 98.7073 25.0894 99.1949 24.3037C99.5492 23.78 100.033 23.3563 100.6 23.0736C101.166 22.7909 101.797 22.6589 102.429 22.6901Z" fill="#333333"/>
<path id="&#237;&#140;&#168;&#236;&#138;&#164; 92135" d="M112.762 17.7325H115.412V21.1073H119.733V23.2218H115.412V30.9142C115.383 31.5628 115.445 32.2122 115.597 32.8434C115.699 33.1543 115.905 33.421 116.18 33.5991C116.456 33.7772 116.784 33.8561 117.11 33.8225C117.505 33.8187 117.898 33.7565 118.275 33.6379C118.592 33.5327 119.293 33.1862 119.293 33.1862L119.849 35.0545C119.849 35.0545 119.146 35.3185 118.912 35.4084C118.136 35.7233 117.311 35.9023 116.474 35.9376C115.542 36.0053 114.621 35.7116 113.902 35.1179C113.142 34.4127 112.762 33.1435 112.762 31.3105V23.2194H110.533V21.1073H112.762V17.7325Z" fill="#333333"/>
<path id="&#237;&#140;&#168;&#236;&#138;&#164; 92136" d="M122.381 20.7042H125.35L127.63 29.7234C127.862 30.5972 128.18 31.842 128.586 33.4576H128.637C128.884 32.4578 129.185 31.213 129.54 29.7234L131.872 20.7048H135.082L137.388 29.7234C137.422 29.8698 137.723 31.1146 138.289 33.4576H138.343C138.395 33.22 138.722 31.9753 139.323 29.7234L141.683 20.7048H144.307L140.304 34.3019C140.218 34.7739 139.965 35.1993 139.59 35.4997C139.214 35.8 138.743 35.9551 138.262 35.9364C137.166 35.9364 136.45 35.3279 136.114 34.1111L134.443 28.1707C134.054 26.8087 133.692 25.2009 133.356 23.3473H133.304C133.033 24.9743 132.67 26.5847 132.217 28.1707L130.572 34.3019C130.488 34.7795 130.232 35.2098 129.851 35.5112C129.47 35.8125 128.991 35.9638 128.505 35.9364C128.006 35.9609 127.515 35.8027 127.124 35.4915C126.733 35.1803 126.47 34.7376 126.384 34.2465L122.381 20.7042Z" fill="#333333"/>
<path id="&#237;&#140;&#168;&#236;&#138;&#164; 92137" d="M152.35 20.7094C153.269 20.6753 154.185 20.8289 155.043 21.1608C155.9 21.4927 156.68 21.9958 157.335 22.6392C158.714 23.9959 159.403 25.8903 159.402 28.3223C159.402 30.7359 158.713 32.6305 157.335 34.0061C155.973 35.2471 154.195 35.9354 152.35 35.9354C150.506 35.9354 148.727 35.2471 147.366 34.0061C145.967 32.6313 145.269 30.7367 145.271 28.3223C145.273 25.908 145.972 24.0136 147.366 22.6392C148.021 21.9958 148.801 21.4927 149.658 21.1608C150.515 20.8289 151.431 20.6753 152.35 20.7094ZM152.35 22.7186C151.767 22.6915 151.185 22.7962 150.647 23.0249C150.11 23.2536 149.631 23.6003 149.247 24.0392C148.417 25.0095 148.002 26.428 148.002 28.2946C148.002 30.1445 148.417 31.5636 149.247 32.5519C149.632 32.9905 150.11 33.337 150.648 33.5657C151.185 33.7943 151.767 33.8992 152.35 33.8725C152.933 33.8956 153.514 33.789 154.051 33.5606C154.588 33.3322 155.067 32.9876 155.453 32.5519C156.284 31.5644 156.699 30.1453 156.698 28.2946C156.698 26.4276 156.283 25.0091 155.453 24.0392C155.069 23.6004 154.591 23.2538 154.053 23.0251C153.516 22.7965 152.934 22.6917 152.35 22.7186Z" fill="#333333"/>
<path id="&#237;&#140;&#168;&#236;&#138;&#164; 92138" d="M171.88 14.4969H174.535V35.939H171.88V14.4969ZM181.468 20.7124H184.729L177.926 28.2897L184.729 35.939H181.182L175.512 29.3254C175.281 29.092 175.149 28.7796 175.141 28.4521C175.151 28.1034 175.294 27.7715 175.541 27.5241L181.468 20.7124Z" fill="#333333"/>
<path id="&#237;&#140;&#168;&#236;&#138;&#164; 92139" d="M195.275 21.529L194.56 23.5358C193.506 23.047 192.354 22.8036 191.192 22.8238C190.55 22.8014 189.913 22.9375 189.336 23.2201C189.052 23.3351 188.808 23.5328 188.638 23.7876C188.468 24.0424 188.379 24.3424 188.382 24.6484C188.382 25.3709 188.876 25.9524 189.864 26.393C191.454 27.0962 192.489 27.5629 192.967 27.793C194.698 28.6386 195.564 29.8985 195.565 31.5728C195.599 32.2153 195.468 32.8558 195.185 33.434C194.902 34.0121 194.475 34.5089 193.946 34.8774C192.842 35.6114 191.535 35.9816 190.209 35.9359C189.28 35.9554 188.352 35.8482 187.452 35.6171C187.019 35.5021 186.604 35.3304 186.217 35.1063C185.998 34.9734 185.51 34.5648 185.51 34.5648L186.066 32.6195C186.066 32.6195 186.81 32.9974 187.08 33.0965C187.265 33.1654 187.674 33.3002 188.271 33.4768C188.932 33.6802 189.62 33.7867 190.312 33.7931C192.167 33.7931 193.095 33.0796 193.095 31.6528C193.095 30.8417 192.547 30.207 191.451 29.7487C189.772 29.0456 188.668 28.5436 188.137 28.2429C187.473 27.9371 186.911 27.4487 186.517 26.8351C186.122 26.2215 185.912 25.5083 185.91 24.7795C185.886 24.1589 186.027 23.5429 186.32 22.9947C186.613 22.4465 187.046 21.9859 187.577 21.6601C188.626 21.0131 189.844 20.6918 191.077 20.737C192.517 20.671 193.952 20.9429 195.267 21.5308" fill="#333333"/>
<path id="&#237;&#140;&#168;&#236;&#138;&#164; 92140" d="M32.776 9.06189e-06C31.3808 9.06189e-06 30.0426 0.552602 29.056 1.53622C28.0694 2.51985 27.5151 3.85392 27.5151 5.24498C27.5154 5.50428 27.5346 5.76322 27.5725 6.01975C27.759 7.26271 28.3868 8.39763 29.3418 9.21802C30.2968 10.0384 31.5154 10.4898 32.776 10.4899C32.9616 10.4901 33.147 10.4806 33.3316 10.4616C34.6731 10.3221 35.9097 9.67425 36.7858 8.65182C37.6619 7.6294 38.1107 6.31053 38.0394 4.96768C37.9681 3.62483 37.3821 2.36058 36.4026 1.43609C35.4231 0.511605 34.1249 -0.00248908 32.776 9.06189e-06Z" fill="#27D4FF"/>
<path id="&#237;&#140;&#168;&#236;&#138;&#164; 92141" d="M38.0357 21.278V19.8152C38.0357 19.7912 38.0357 19.7678 38.0357 19.7432C38.0357 19.7186 38.0357 19.6958 38.0357 19.6712C38.022 18.5365 37.6375 17.4373 36.9406 16.5401C36.8703 16.449 36.7962 16.3604 36.7203 16.2749C36.6444 16.1893 36.5493 16.1247 36.4691 16.0441C35.7668 15.3373 34.8764 14.8454 33.903 14.6264C32.9296 14.4075 31.9136 14.4706 30.975 14.8084C30.0363 15.1462 29.2142 15.7445 28.6054 16.5328C27.9966 17.3212 27.6267 18.2666 27.5392 19.2577C27.5243 19.4177 27.5157 19.5789 27.5157 19.7432C27.5157 19.9075 27.525 20.0854 27.541 20.2527L27.5459 22.9845C27.5535 24.3675 27.2199 25.7311 26.5745 26.9554C25.9292 28.1797 24.992 29.2271 23.8452 30.0054C22.6985 30.7837 21.3774 31.2691 19.9984 31.4188C18.6193 31.5685 17.2244 31.3779 15.9365 30.8639C17.5957 32.6516 19.7348 33.9268 22.0996 34.538C24.4644 35.1492 26.9555 35.0707 29.2769 34.3117C31.5982 33.5528 33.6522 32.1455 35.1948 30.2568C36.7374 28.3682 37.7037 26.0778 37.9789 23.6577C37.9986 23.4731 38.0104 23.2885 38.0221 23.0983C38.0332 22.9297 38.0566 22.7648 38.0616 22.5943C38.0653 22.4657 38.0671 22.3377 38.0671 22.2085C38.0671 21.8971 38.056 21.5888 38.0357 21.2823" fill="#27D4FF"/>
<path id="&#237;&#140;&#168;&#236;&#138;&#164; 92142" d="M5.26091 0C3.91436 0.00423717 2.6207 0.523079 1.64634 1.44968C0.671968 2.37628 0.0910754 3.6401 0.0232793 4.98087C-0.0445168 6.32164 0.405946 7.63729 1.2819 8.65689C2.15786 9.67648 3.39262 10.3224 4.73192 10.4616C4.90598 10.4789 5.08252 10.4881 5.26091 10.4881C6.63885 10.4623 7.95162 9.89849 8.91696 8.91784C9.8823 7.9372 10.4231 6.61805 10.4231 5.24404C10.4231 3.87003 9.8823 2.55089 8.91696 1.57025C7.95162 0.589603 6.63885 0.0257772 5.26091 0Z" fill="#0069E6"/>
<path id="&#237;&#140;&#168;&#236;&#138;&#164; 92143" d="M10.5388 22.5491C10.5388 22.434 10.5215 22.3226 10.5215 22.2069V22.3054C10.5215 22.3878 10.5363 22.4666 10.5388 22.5515" fill="#0069E6"/>
<path id="&#237;&#140;&#168;&#236;&#138;&#164; 92144" d="M10.6421 23.9998C10.6495 24.0558 10.66 24.1111 10.668 24.1671C10.66 24.1105 10.6489 24.0558 10.6421 23.9998Z" fill="#0069E6"/>
<path id="&#237;&#140;&#168;&#236;&#138;&#164; 92145" d="M10.6675 24.168C10.6595 24.112 10.6496 24.0572 10.6416 24.0006C10.5835 23.5239 10.5494 23.0402 10.5391 22.5495C10.5391 22.4671 10.5218 22.3883 10.5212 22.3034V19.7415C10.5062 18.3604 9.94534 17.0409 8.96042 16.0695C7.97549 15.0982 6.646 14.5533 5.2606 14.5533C3.87519 14.5533 2.5457 15.0982 1.56078 16.0695C0.575854 17.0409 0.0150063 18.3604 0 19.7415L0 22.9828C0.000157549 27.8753 1.89577 32.5787 5.29114 36.1111C8.6865 39.6435 13.3192 41.732 18.2221 41.9405C18.7502 42.0201 19.2872 42.0201 19.8153 41.9405C22.8676 41.8167 25.845 40.9617 28.4957 39.4479C31.1465 37.9341 33.3925 35.8061 35.0437 33.2438C33.0412 35.0093 30.5949 36.1987 27.9665 36.6846C25.3381 37.1706 22.6267 36.9347 20.1224 36.0023C17.6182 35.0699 15.4154 33.4761 13.7499 31.3915C12.0844 29.3069 11.0189 26.81 10.6675 24.168Z" fill="#0069E6"/>
<path id="&#237;&#140;&#168;&#236;&#138;&#164; 92146" d="M10.5386 22.5488C10.5497 23.0411 10.584 23.525 10.6417 24.0005C10.5819 23.5188 10.5475 23.0342 10.5386 22.5488Z" fill="#0069E6"/>
</g>
</svg>
