<svg width="40" height="40" viewBox="0 0 40 40" fill="none" xmlns="http://www.w3.org/2000/svg">
<g id="20">
<g id="Vector">
<path d="M33.3334 6.66667H6.66671C5.78265 6.66667 4.93481 7.01786 4.30968 7.64298C3.68456 8.2681 3.33337 9.11595 3.33337 10V30C3.33337 30.8841 3.68456 31.7319 4.30968 32.357C4.93481 32.9821 5.78265 33.3333 6.66671 33.3333H33.3334C34.2174 33.3333 35.0653 32.9821 35.6904 32.357C36.3155 31.7319 36.6667 30.8841 36.6667 30V10C36.6667 9.11595 36.3155 8.2681 35.6904 7.64298C35.0653 7.01786 34.2174 6.66667 33.3334 6.66667ZM6.66671 8.33334H33.3334C33.7754 8.33334 34.1993 8.50893 34.5119 8.82149C34.8244 9.13405 35 9.55798 35 10V24.8667L32.11 22.1567C31.5913 21.7473 30.9544 21.5162 30.2938 21.4976C29.6333 21.479 28.9844 21.6739 28.4434 22.0533L25.55 24.0783L17.95 17.4283C17.4092 16.9573 16.7208 16.69 16.0038 16.6727C15.2869 16.6554 14.5864 16.889 14.0234 17.3333L5.00004 24.97V10C5.00004 9.55798 5.17564 9.13405 5.4882 8.82149C5.80076 8.50893 6.22468 8.33334 6.66671 8.33334Z" fill="#0068E6"/>
<path d="M27.5 16.6667C27.9945 16.6667 28.4778 16.5201 28.889 16.2453C29.3001 15.9706 29.6205 15.5802 29.8097 15.1234C29.999 14.6666 30.0485 14.1639 29.952 13.6789C29.8555 13.194 29.6174 12.7485 29.2678 12.3989C28.9182 12.0493 28.4727 11.8112 27.9878 11.7147C27.5028 11.6182 27.0001 11.6678 26.5433 11.857C26.0865 12.0462 25.6961 12.3666 25.4214 12.7777C25.1467 13.1889 25 13.6722 25 14.1667C25 14.8297 25.2634 15.4656 25.7323 15.9344C26.2011 16.4033 26.837 16.6667 27.5 16.6667Z" fill="#0068E6"/>
</g>
</g>
</svg>
