<svg width="28" height="28" viewBox="0 0 28 28" fill="none" xmlns="http://www.w3.org/2000/svg">
<g id="Layer_1" clip-path="url(#clip0_2_9299)">
<path id="Vector" d="M16.3008 1.74315C16.3008 0.917968 15.6318 0.249023 14.8066 0.249023C13.9814 0.249023 13.3125 0.917968 13.3125 1.74315V5.7275C13.3125 6.55269 13.9814 7.22163 14.8066 7.22163C15.6318 7.22163 16.3008 6.55269 16.3008 5.7275V1.74315Z" fill="#0068E6"/>
<path id="Vector_2" d="M6.95957 3.7057C6.37607 3.1222 5.43004 3.1222 4.84655 3.7057C4.26305 4.28919 4.26305 5.23522 4.84655 5.81872L7.66391 8.63608C8.2474 9.21957 9.19343 9.21957 9.77693 8.63608C10.3604 8.05258 10.3604 7.10655 9.77693 6.52306L6.95957 3.7057Z" fill="#0068E6"/>
<path id="Vector_3" d="M1.74315 11.6992C0.917968 11.6992 0.249023 12.3682 0.249023 13.1934C0.249023 14.0186 0.917968 14.6875 1.74315 14.6875H5.7275C6.55269 14.6875 7.22163 14.0186 7.22163 13.1934C7.22163 12.3682 6.55269 11.6992 5.7275 11.6992H1.74315Z" fill="#0068E6"/>
<path id="Vector_4" d="M3.70667 21.0439C3.12318 21.6273 3.12318 22.5734 3.70667 23.1569C4.29017 23.7404 5.2362 23.7404 5.81969 23.1569L8.63705 20.3395C9.22055 19.756 9.22055 18.81 8.63705 18.2265C8.05356 17.643 7.10753 17.643 6.52403 18.2265L3.70667 21.0439Z" fill="#DCDDE0"/>
<path id="Vector_5" d="M11.7041 26.2568C11.7041 27.082 12.3731 27.751 13.1983 27.751C14.0234 27.751 14.6924 27.082 14.6924 26.2568V22.2725C14.6924 21.4473 14.0234 20.7784 13.1983 20.7784C12.3731 20.7784 11.7041 21.4473 11.7041 22.2725V26.2568Z" fill="#DCDDE0"/>
<path id="Vector_6" d="M21.0429 24.2899C21.6264 24.8734 22.5724 24.8734 23.1559 24.2899C23.7394 23.7064 23.7394 22.7604 23.1559 22.1769L20.3385 19.3595C19.755 18.776 18.809 18.776 18.2255 19.3595C17.642 19.943 17.642 20.8891 18.2255 21.4725L21.0429 24.2899Z" fill="#DCDDE0"/>
<path id="Vector_7" d="M26.2568 16.3008C27.082 16.3008 27.751 15.6318 27.751 14.8066C27.751 13.9814 27.082 13.3125 26.2568 13.3125H22.2725C21.4473 13.3125 20.7784 13.9814 20.7784 14.8066C20.7784 15.6318 21.4473 16.3008 22.2725 16.3008H26.2568Z" fill="#DCDDE0"/>
<path id="Vector_8" d="M24.2953 6.96054C24.8788 6.37705 24.8788 5.43102 24.2953 4.84753C23.7118 4.26403 22.7658 4.26403 22.1823 4.84753L19.3649 7.66488C18.7814 8.24838 18.7814 9.19441 19.3649 9.7779C19.9484 10.3614 20.8944 10.3614 21.4779 9.7779L24.2953 6.96054Z" fill="#DCDDE0"/>
</g>
<defs>
<clipPath id="clip0_2_9299">
<rect width="28" height="28" fill="white"/>
</clipPath>
</defs>
</svg>
