<svg width="21" height="20" viewBox="0 0 21 20" fill="none" xmlns="http://www.w3.org/2000/svg">
<g id="20">
<g id="Vector">
<path d="M17.1665 3.3335H3.83317C3.39114 3.3335 2.96722 3.50909 2.65466 3.82165C2.3421 4.13421 2.1665 4.55814 2.1665 5.00016V15.0002C2.1665 15.4422 2.3421 15.8661 2.65466 16.1787C2.96722 16.4912 3.39114 16.6668 3.83317 16.6668H17.1665C17.6085 16.6668 18.0325 16.4912 18.345 16.1787C18.6576 15.8661 18.8332 15.4422 18.8332 15.0002V5.00016C18.8332 4.55814 18.6576 4.13421 18.345 3.82165C18.0325 3.50909 17.6085 3.3335 17.1665 3.3335ZM3.83317 4.16683H17.1665C17.3875 4.16683 17.5995 4.25463 17.7558 4.41091C17.912 4.56719 17.9998 4.77915 17.9998 5.00016V12.4335L16.5548 11.0785C16.2955 10.8738 15.977 10.7583 15.6467 10.749C15.3165 10.7396 14.992 10.8371 14.7215 11.0268L13.2748 12.0393L9.47484 8.71433C9.20442 8.47882 8.86023 8.34518 8.50174 8.33651C8.14325 8.32784 7.79299 8.44467 7.5115 8.66683L2.99984 12.4852V5.00016C2.99984 4.77915 3.08763 4.56719 3.24391 4.41091C3.4002 4.25463 3.61216 4.16683 3.83317 4.16683Z" fill="white"/>
<path d="M14.2498 8.3335C14.4971 8.3335 14.7387 8.26019 14.9443 8.12283C15.1499 7.98548 15.3101 7.79026 15.4047 7.56185C15.4993 7.33344 15.5241 7.08211 15.4758 6.83963C15.4276 6.59716 15.3085 6.37443 15.1337 6.19961C14.9589 6.0248 14.7362 5.90575 14.4937 5.85751C14.2512 5.80928 13.9999 5.83404 13.7715 5.92865C13.5431 6.02326 13.3479 6.18347 13.2105 6.38903C13.0731 6.59459 12.9998 6.83627 12.9998 7.0835C12.9998 7.41502 13.1315 7.73296 13.366 7.96738C13.6004 8.2018 13.9183 8.3335 14.2498 8.3335Z" fill="white"/>
</g>
</g>
</svg>
